<?xml version="1.0" encoding="utf-8"?>
<!-- Generator: Adobe Illustrator 24.0.1, SVG Export Plug-In . SVG Version: 6.00 Build 0)  -->
<svg version="1.1" id="Layer_1" xmlns="http://www.w3.org/2000/svg" xmlns:xlink="http://www.w3.org/1999/xlink" x="0px" y="0px"
	 viewBox="0 0 90 85.8" style="enable-background:new 0 0 90 85.8;" xml:space="preserve">
<path d="M38.6,47l-4.7,1.2c0.2,1.6,0.4,2.5,0.4,2.6c1.9,12.6,1.5,15.5-6.8,20.4c-1.1,0.6-2.2,1.3-3.2,2c-4.2,2.6-8.6,5.3-11.8,5.3
	c-1.1,0-4,0-5.6-8.1C2,45.1,11.3,28.3,20,18.8c1.9-2.1,3.7-3.2,5.4-3.2c3.5,0,6.7,5.3,6.9,11.3c0.1,3.3,0.2,6.4,0.5,9.3l4.7-2.1
	c-0.1-2.3-0.3-4.8-0.3-7.3c-0.2-7.9-4.6-16-11.7-16c-3.1,0-6.1,1.6-9,4.7C7,25.9-3.1,44,2.1,71.3c1.5,8,5,12,10.3,12l0,0
	c4.5,0,9.5-3.1,14.3-6c1.1-0.6,2.1-1.3,3.2-1.9c11.4-6.7,11-12.9,9.2-25.3C39,50,38.9,48.9,38.6,47z"/>
<path d="M73.6,15.5c-2.9-3.1-5.9-4.7-9-4.7c-7.1,0-11.5,8.1-11.7,16c-0.1,2.5-0.2,5-0.3,7.3l4.7,2.1c0.2-2.8,0.4-5.9,0.5-9.2
	c0.2-6,3.4-11.3,6.9-11.3c1.6,0,3.5,1.1,5.4,3.2c8.7,9.6,18,26.3,13.2,51.6c-1.5,8.1-4.5,8.1-5.6,8.1c-3.1,0-7.5-2.7-11.8-5.3
	c-1.1-0.7-2.2-1.3-3.2-2c-8.3-4.9-8.7-7.8-6.8-20.3c0-0.1,0.2-1.1,0.4-2.7L51.4,47c-0.2,2-0.4,3.1-0.4,3.1
	c-1.8,12.4-2.2,18.6,9.2,25.2c1,0.6,2.1,1.3,3.2,1.9c4.8,3,9.8,6,14.3,6c5.3,0,8.8-4,10.3-12C93.1,44,83,25.9,73.6,15.5z"/>
<path d="M75.7,47.7l-7.8-2.9l4.6-4c0.3-0.3,0.3-0.7,0.1-1c-0.2-0.3-0.6-0.4-1-0.3l-6.7,4.1l-4.1-1.7l5.7-9.3c0.2-0.4,0.1-0.8-0.3-1
	c-0.3-0.2-0.8-0.1-1.1,0.2l-7.1,9.1l-9.6-4.3V2.9h-6.9v33.6l-9.6,4.3L25,31.7c-0.3-0.3-0.7-0.4-1.1-0.2c-0.3,0.2-0.5,0.7-0.3,1
	l5.7,9.3l-4.1,1.7l-6.7-4.1c-0.3-0.2-0.8,0-1,0.3c-0.2,0.3-0.2,0.7,0.1,1l4.6,4l-7.8,2.9c-0.4,0.2-0.6,0.6-0.5,1s0.5,0.6,1,0.5
	l10.5-3l-4.9,10.4c-0.2,0.4,0,0.8,0.3,1c0,0,0.1,0,0.1,0c0.4,0.1,0.8,0,1-0.3l6.7-11.1c0.2-0.3,0.4-0.6,0.5-0.9l0.1-0.1l15.8-4
	l15.8,4l0.1,0.1c0.1,0.2,0.3,0.5,0.5,0.9l6.7,11.1c0.2,0.3,0.6,0.5,1,0.3c0,0,0.1,0,0.1,0c0.4-0.2,0.5-0.7,0.4-1l-4.9-10.4l10.5,3
	c0.4,0.1,0.8-0.1,1-0.5C76.3,48.2,76.1,47.8,75.7,47.7z"/>
</svg>
